<svg xmlns="http://www.w3.org/2000/svg" x="0px" y="0px"
width="48" height="48"
viewBox="0 0 226 226"
style=" fill:#000000;"><g transform=""><g fill="none" fill-rule="nonzero" stroke="none" stroke-width="1" stroke-linecap="butt" stroke-linejoin="miter" stroke-miterlimit="10" stroke-dasharray="" stroke-dashoffset="0" font-family="none" font-weight="none" font-size="none" text-anchor="none" style="mix-blend-mode: normal"><path d="M0,226v-226h226v226z" fill="none"></path><path d="M113,226c-62.40818,0 -113,-50.59182 -113,-113v0c0,-62.40818 50.59182,-113 113,-113v0c62.40818,0 113,50.59182 113,113v0c0,62.40818 -50.59182,113 -113,113z" fill="none"></path><path d="M113,221.48c-59.91185,0 -108.48,-48.56815 -108.48,-108.48v0c0,-59.91185 48.56815,-108.48 108.48,-108.48h0c59.91185,0 108.48,48.56815 108.48,108.48v0c0,59.91185 -48.56815,108.48 -108.48,108.48z" fill="none"></path><path d="M113,226c-62.40818,0 -113,-50.59182 -113,-113v0c0,-62.40818 50.59182,-113 113,-113v0c62.40818,0 113,50.59182 113,113v0c0,62.40818 -50.59182,113 -113,113z" fill="none"></path><path d="M113,216.96c-57.41552,0 -103.96,-46.54448 -103.96,-103.96v0c0,-57.41552 46.54448,-103.96 103.96,-103.96v0c57.41552,0 103.96,46.54448 103.96,103.96v0c0,57.41552 -46.54448,103.96 -103.96,103.96z" fill="none"></path><path d="M113,226c-62.40818,0 -113,-50.59182 -113,-113v0c0,-62.40818 50.59182,-113 113,-113v0c62.40818,0 113,50.59182 113,113v0c0,62.40818 -50.59182,113 -113,113z" fill="none"></path><path d="M113,221.48c-59.91185,0 -108.48,-48.56815 -108.48,-108.48v0c0,-59.91185 48.56815,-108.48 108.48,-108.48h0c59.91185,0 108.48,48.56815 108.48,108.48v0c0,59.91185 -48.56815,108.48 -108.48,108.48z" fill="none"></path><path d="M113,226c-62.40818,0 -113,-50.59182 -113,-113v0c0,-62.40818 50.59182,-113 113,-113v0c62.40818,0 113,50.59182 113,113v0c0,62.40818 -50.59182,113 -113,113z" fill="none"></path><path d="M113,221.48c-59.91185,0 -108.48,-48.56815 -108.48,-108.48v0c0,-59.91185 48.56815,-108.48 108.48,-108.48h0c59.91185,0 108.48,48.56815 108.48,108.48v0c0,59.91185 -48.56815,108.48 -108.48,108.48z" fill="none"></path><path d="M113,226c-62.40818,0 -113,-50.59182 -113,-113v0c0,-62.40818 50.59182,-113 113,-113v0c62.40818,0 113,50.59182 113,113v0c0,62.40818 -50.59182,113 -113,113z" fill="none"></path><path d="M113,221.48c-59.91185,0 -108.48,-48.56815 -108.48,-108.48v0c0,-59.91185 48.56815,-108.48 108.48,-108.48h0c59.91185,0 108.48,48.56815 108.48,108.48v0c0,59.91185 -48.56815,108.48 -108.48,108.48z" fill="none"></path><path d="M113,226c-62.40818,0 -113,-50.59182 -113,-113v0c0,-62.40818 50.59182,-113 113,-113v0c62.40818,0 113,50.59182 113,113v0c0,62.40818 -50.59182,113 -113,113z" fill="none"></path><path d="M113,221.48c-59.91185,0 -108.48,-48.56815 -108.48,-108.48v0c0,-59.91185 48.56815,-108.48 108.48,-108.48h0c59.91185,0 108.48,48.56815 108.48,108.48v0c0,59.91185 -48.56815,108.48 -108.48,108.48z" fill="none"></path><path d="M113,226c-62.40818,0 -113,-50.59182 -113,-113v0c0,-62.40818 50.59182,-113 113,-113v0c62.40818,0 113,50.59182 113,113v0c0,62.40818 -50.59182,113 -113,113z" fill="none"></path><path d="M113,221.48c-59.91185,0 -108.48,-48.56815 -108.48,-108.48v0c0,-59.91185 48.56815,-108.48 108.48,-108.48h0c59.91185,0 108.48,48.56815 108.48,108.48v0c0,59.91185 -48.56815,108.48 -108.48,108.48z" fill="none"></path><path d="M113,226c-62.40818,0 -113,-50.59182 -113,-113v0c0,-62.40818 50.59182,-113 113,-113v0c62.40818,0 113,50.59182 113,113v0c0,62.40818 -50.59182,113 -113,113z" fill="none"></path><path d="M113,221.48c-59.91185,0 -108.48,-48.56815 -108.48,-108.48v0c0,-59.91185 48.56815,-108.48 108.48,-108.48h0c59.91185,0 108.48,48.56815 108.48,108.48v0c0,59.91185 -48.56815,108.48 -108.48,108.48z" fill="none"></path><path d="M113,226c-62.40818,0 -113,-50.59182 -113,-113v0c0,-62.40818 50.59182,-113 113,-113v0c62.40818,0 113,50.59182 113,113v0c0,62.40818 -50.59182,113 -113,113z" fill="none"></path><path d="M113,221.48c-59.91185,0 -108.48,-48.56815 -108.48,-108.48v0c0,-59.91185 48.56815,-108.48 108.48,-108.48h0c59.91185,0 108.48,48.56815 108.48,108.48v0c0,59.91185 -48.56815,108.48 -108.48,108.48z" fill="none"></path><path d="M113,226c-62.40818,0 -113,-50.59182 -113,-113v0c0,-62.40818 50.59182,-113 113,-113v0c62.40818,0 113,50.59182 113,113v0c0,62.40818 -50.59182,113 -113,113z" fill="none"></path><path d="M113,221.48c-59.91185,0 -108.48,-48.56815 -108.48,-108.48v0c0,-59.91185 48.56815,-108.48 108.48,-108.48h0c59.91185,0 108.48,48.56815 108.48,108.48v0c0,59.91185 -48.56815,108.48 -108.48,108.48z" fill="none"></path><path d="M113,226c-62.40818,0 -113,-50.59182 -113,-113v0c0,-62.40818 50.59182,-113 113,-113v0c62.40818,0 113,50.59182 113,113v0c0,62.40818 -50.59182,113 -113,113z" fill="none"></path><path d="M113,221.48c-59.91185,0 -108.48,-48.56815 -108.48,-108.48v0c0,-59.91185 48.56815,-108.48 108.48,-108.48h0c59.91185,0 108.48,48.56815 108.48,108.48v0c0,59.91185 -48.56815,108.48 -108.48,108.48z" fill="none"></path><path d="M113,226c-62.40818,0 -113,-50.59182 -113,-113v0c0,-62.40818 50.59182,-113 113,-113v0c62.40818,0 113,50.59182 113,113v0c0,62.40818 -50.59182,113 -113,113z" fill="none"></path><path d="M113,221.48c-59.91185,0 -108.48,-48.56815 -108.48,-108.48v0c0,-59.91185 48.56815,-108.48 108.48,-108.48h0c59.91185,0 108.48,48.56815 108.48,108.48v0c0,59.91185 -48.56815,108.48 -108.48,108.48z" fill="none"></path><path d="M113,226c-62.40818,0 -113,-50.59182 -113,-113v0c0,-62.40818 50.59182,-113 113,-113v0c62.40818,0 113,50.59182 113,113v0c0,62.40818 -50.59182,113 -113,113z" fill="none"></path><path d="M113,221.48c-59.91185,0 -108.48,-48.56815 -108.48,-108.48v0c0,-59.91185 48.56815,-108.48 108.48,-108.48h0c59.91185,0 108.48,48.56815 108.48,108.48v0c0,59.91185 -48.56815,108.48 -108.48,108.48z" fill="none"></path><path d="M113,224.87c-61.78409,0 -111.87,-50.08591 -111.87,-111.87v0c0,-61.78409 50.08591,-111.87 111.87,-111.87v0c61.78409,0 111.87,50.08591 111.87,111.87v0c0,61.78409 -50.08591,111.87 -111.87,111.87z" fill="none"></path><path d="M113,220.35c-59.28777,0 -107.35,-48.06223 -107.35,-107.35v0c0,-59.28777 48.06223,-107.35 107.35,-107.35h0c59.28777,0 107.35,48.06223 107.35,107.35v0c0,59.28777 -48.06223,107.35 -107.35,107.35z" fill="none"></path><path d="M113,213.57c-55.54328,0 -100.57,-45.02672 -100.57,-100.57v0c0,-55.54328 45.02672,-100.57 100.57,-100.57v0c55.54328,0 100.57,45.02672 100.57,100.57v0c0,55.54328 -45.02672,100.57 -100.57,100.57z" fill="none"></path><path d="M113,209.05c-53.04695,0 -96.05,-43.00305 -96.05,-96.05v0c0,-53.04695 43.00305,-96.05 96.05,-96.05h0c53.04695,0 96.05,43.00305 96.05,96.05v0c0,53.04695 -43.00305,96.05 -96.05,96.05z" fill="none"></path><path d="M113,205.66c-51.1747,0 -92.66,-41.4853 -92.66,-92.66v0c0,-51.1747 41.4853,-92.66 92.66,-92.66v0c51.1747,0 92.66,41.4853 92.66,92.66v0c0,51.1747 -41.4853,92.66 -92.66,92.66z" fill="none"></path><path d="M113,201.14c-48.67838,0 -88.14,-39.46162 -88.14,-88.14v0c0,-48.67838 39.46162,-88.14 88.14,-88.14h0c48.67838,0 88.14,39.46162 88.14,88.14v0c0,48.67838 -39.46162,88.14 -88.14,88.14z" fill="none"></path><path d="M113,202.27c-49.30246,0 -89.27,-39.96754 -89.27,-89.27v0c0,-49.30246 39.96754,-89.27 89.27,-89.27h0c49.30246,0 89.27,39.96754 89.27,89.27v0c0,49.30246 -39.96754,89.27 -89.27,89.27z" fill="none"></path><path d="M113,197.75c-46.80613,0 -84.75,-37.94387 -84.75,-84.75v0c0,-46.80613 37.94387,-84.75 84.75,-84.75v0c46.80613,0 84.75,37.94387 84.75,84.75v0c0,46.80613 -37.94387,84.75 -84.75,84.75z" fill="none"></path><path d="M113,201.14c-48.67838,0 -88.14,-39.46162 -88.14,-88.14v0c0,-48.67838 39.46162,-88.14 88.14,-88.14h0c48.67838,0 88.14,39.46162 88.14,88.14v0c0,48.67838 -39.46162,88.14 -88.14,88.14z" fill="none"></path><path d="M113,196.62c-46.18205,0 -83.62,-37.43795 -83.62,-83.62v0c0,-46.18205 37.43795,-83.62 83.62,-83.62v0c46.18205,0 83.62,37.43795 83.62,83.62v0c0,46.18205 -37.43795,83.62 -83.62,83.62z" fill="none"></path><path d="M113,200.01c-48.0543,0 -87.01,-38.9557 -87.01,-87.01v0c0,-48.0543 38.9557,-87.01 87.01,-87.01h0c48.0543,0 87.01,38.9557 87.01,87.01v0c0,48.0543 -38.9557,87.01 -87.01,87.01z" fill="none"></path><path d="M113,195.49c-45.55797,0 -82.49,-36.93203 -82.49,-82.49v0c0,-45.55797 36.93203,-82.49 82.49,-82.49v0c45.55797,0 82.49,36.93203 82.49,82.49v0c0,45.55797 -36.93203,82.49 -82.49,82.49z" fill="none"></path><path d="M113,202.27c-49.30246,0 -89.27,-39.96754 -89.27,-89.27v0c0,-49.30246 39.96754,-89.27 89.27,-89.27h0c49.30246,0 89.27,39.96754 89.27,89.27v0c0,49.30246 -39.96754,89.27 -89.27,89.27z" fill="none"></path><path d="M113,197.75c-46.80613,0 -84.75,-37.94387 -84.75,-84.75v0c0,-46.80613 37.94387,-84.75 84.75,-84.75v0c46.80613,0 84.75,37.94387 84.75,84.75v0c0,46.80613 -37.94387,84.75 -84.75,84.75z" fill="none"></path><path d="M113,211.31c-54.29511,0 -98.31,-44.01489 -98.31,-98.31v0c0,-54.29511 44.01489,-98.31 98.31,-98.31v0c54.29511,0 98.31,44.01489 98.31,98.31v0c0,54.29511 -44.01489,98.31 -98.31,98.31z" fill="none"></path><path d="M113,206.79c-51.79879,0 -93.79,-41.99121 -93.79,-93.79v0c0,-51.79879 41.99121,-93.79 93.79,-93.79h0c51.79879,0 93.79,41.99121 93.79,93.79v0c0,51.79879 -41.99121,93.79 -93.79,93.79z" fill="none"></path><path d="M113,219.22c-58.66369,0 -106.22,-47.55631 -106.22,-106.22v0c0,-58.66369 47.55631,-106.22 106.22,-106.22v0c58.66369,0 106.22,47.55631 106.22,106.22v0c0,58.66369 -47.55631,106.22 -106.22,106.22z" fill="none"></path><path d="M113,214.7c-56.16736,0 -101.7,-45.53264 -101.7,-101.7v0c0,-56.16736 45.53264,-101.7 101.7,-101.7h0c56.16736,0 101.7,45.53264 101.7,101.7v0c0,56.16736 -45.53264,101.7 -101.7,101.7z" fill="none"></path><path d="M113,224.87c-61.78409,0 -111.87,-50.08591 -111.87,-111.87v0c0,-61.78409 50.08591,-111.87 111.87,-111.87v0c61.78409,0 111.87,50.08591 111.87,111.87v0c0,61.78409 -50.08591,111.87 -111.87,111.87z" fill="none"></path><path d="M113,220.35c-59.28777,0 -107.35,-48.06223 -107.35,-107.35v0c0,-59.28777 48.06223,-107.35 107.35,-107.35h0c59.28777,0 107.35,48.06223 107.35,107.35v0c0,59.28777 -48.06223,107.35 -107.35,107.35z" fill="none"></path><path d="M113,226c-62.40818,0 -113,-50.59182 -113,-113v0c0,-62.40818 50.59182,-113 113,-113v0c62.40818,0 113,50.59182 113,113v0c0,62.40818 -50.59182,113 -113,113z" fill="none"></path><path d="M113,221.48c-59.91185,0 -108.48,-48.56815 -108.48,-108.48v0c0,-59.91185 48.56815,-108.48 108.48,-108.48h0c59.91185,0 108.48,48.56815 108.48,108.48v0c0,59.91185 -48.56815,108.48 -108.48,108.48z" fill="none"></path><path d="M113,227.13c-63.03226,0 -114.13,-51.09774 -114.13,-114.13v0c0,-63.03226 51.09774,-114.13 114.13,-114.13v0c63.03226,0 114.13,51.09774 114.13,114.13v0c0,63.03226 -51.09774,114.13 -114.13,114.13z" fill="none"></path><path d="M113,222.61c-60.53593,0 -109.61,-49.07407 -109.61,-109.61v0c0,-60.53593 49.07407,-109.61 109.61,-109.61h0c60.53593,0 109.61,49.07407 109.61,109.61v0c0,60.53593 -49.07407,109.61 -109.61,109.61z" fill="none"></path><path d="M113,227.13c-63.03226,0 -114.13,-51.09774 -114.13,-114.13v0c0,-63.03226 51.09774,-114.13 114.13,-114.13v0c63.03226,0 114.13,51.09774 114.13,114.13v0c0,63.03226 -51.09774,114.13 -114.13,114.13z" fill="none"></path><path d="M113,222.61c-60.53593,0 -109.61,-49.07407 -109.61,-109.61v0c0,-60.53593 49.07407,-109.61 109.61,-109.61h0c60.53593,0 109.61,49.07407 109.61,109.61v0c0,60.53593 -49.07407,109.61 -109.61,109.61z" fill="none"></path><path d="M0,226v-226h226v226z" fill="none"></path><path d="M4.52,221.48v-216.96h216.96v216.96z" fill="none"></path><path d="M113,227.13c-63.03226,0 -114.13,-51.09774 -114.13,-114.13v0c0,-63.03226 51.09774,-114.13 114.13,-114.13v0c63.03226,0 114.13,51.09774 114.13,114.13v0c0,63.03226 -51.09774,114.13 -114.13,114.13z" fill="none"></path><path d="M113,222.61c-60.53593,0 -109.61,-49.07407 -109.61,-109.61v0c0,-60.53593 49.07407,-109.61 109.61,-109.61h0c60.53593,0 109.61,49.07407 109.61,109.61v0c0,60.53593 -49.07407,109.61 -109.61,109.61z" fill="none"></path><path d="M113,226c-62.40818,0 -113,-50.59182 -113,-113v0c0,-62.40818 50.59182,-113 113,-113v0c62.40818,0 113,50.59182 113,113v0c0,62.40818 -50.59182,113 -113,113z" fill="none"></path><path d="M113,221.48c-59.91185,0 -108.48,-48.56815 -108.48,-108.48v0c0,-59.91185 48.56815,-108.48 108.48,-108.48h0c59.91185,0 108.48,48.56815 108.48,108.48v0c0,59.91185 -48.56815,108.48 -108.48,108.48z" fill="none"></path><path d="M113,224.87c-61.78409,0 -111.87,-50.08591 -111.87,-111.87v0c0,-61.78409 50.08591,-111.87 111.87,-111.87v0c61.78409,0 111.87,50.08591 111.87,111.87v0c0,61.78409 -50.08591,111.87 -111.87,111.87z" fill="none"></path><path d="M113,220.35c-59.28777,0 -107.35,-48.06223 -107.35,-107.35v0c0,-59.28777 48.06223,-107.35 107.35,-107.35h0c59.28777,0 107.35,48.06223 107.35,107.35v0c0,59.28777 -48.06223,107.35 -107.35,107.35z" fill="none"></path><path d="M113,226c-62.40818,0 -113,-50.59182 -113,-113v0c0,-62.40818 50.59182,-113 113,-113v0c62.40818,0 113,50.59182 113,113v0c0,62.40818 -50.59182,113 -113,113z" fill="none"></path><path d="M113,221.48c-59.91185,0 -108.48,-48.56815 -108.48,-108.48v0c0,-59.91185 48.56815,-108.48 108.48,-108.48h0c59.91185,0 108.48,48.56815 108.48,108.48v0c0,59.91185 -48.56815,108.48 -108.48,108.48z" fill="none"></path><path d="M113,233.91c-66.77675,0 -120.91,-54.13325 -120.91,-120.91v0c0,-66.77675 54.13325,-120.91 120.91,-120.91v0c66.77675,0 120.91,54.13325 120.91,120.91v0c0,66.77675 -54.13325,120.91 -120.91,120.91z" fill="none"></path><path d="M113,229.39c-64.28042,0 -116.39,-52.10958 -116.39,-116.39v0c0,-64.28042 52.10958,-116.39 116.39,-116.39h0c64.28042,0 116.39,52.10958 116.39,116.39v0c0,64.28042 -52.10958,116.39 -116.39,116.39z" fill="none"></path><path d="M113,233.91c-66.77675,0 -120.91,-54.13325 -120.91,-120.91v0c0,-66.77675 54.13325,-120.91 120.91,-120.91v0c66.77675,0 120.91,54.13325 120.91,120.91v0c0,66.77675 -54.13325,120.91 -120.91,120.91z" fill="none"></path><path d="M113,229.39c-64.28042,0 -116.39,-52.10958 -116.39,-116.39v0c0,-64.28042 52.10958,-116.39 116.39,-116.39h0c64.28042,0 116.39,52.10958 116.39,116.39v0c0,64.28042 -52.10958,116.39 -116.39,116.39z" fill="none"></path><path d="M113,233.91c-66.77675,0 -120.91,-54.13325 -120.91,-120.91v0c0,-66.77675 54.13325,-120.91 120.91,-120.91v0c66.77675,0 120.91,54.13325 120.91,120.91v0c0,66.77675 -54.13325,120.91 -120.91,120.91z" fill="none"></path><path d="M113,229.39c-64.28042,0 -116.39,-52.10958 -116.39,-116.39v0c0,-64.28042 52.10958,-116.39 116.39,-116.39h0c64.28042,0 116.39,52.10958 116.39,116.39v0c0,64.28042 -52.10958,116.39 -116.39,116.39z" fill="none"></path><path d="M113,233.91c-66.77675,0 -120.91,-54.13325 -120.91,-120.91v0c0,-66.77675 54.13325,-120.91 120.91,-120.91v0c66.77675,0 120.91,54.13325 120.91,120.91v0c0,66.77675 -54.13325,120.91 -120.91,120.91z" fill="none"></path><path d="M113,229.39c-64.28042,0 -116.39,-52.10958 -116.39,-116.39v0c0,-64.28042 52.10958,-116.39 116.39,-116.39h0c64.28042,0 116.39,52.10958 116.39,116.39v0c0,64.28042 -52.10958,116.39 -116.39,116.39z" fill="none"></path><path d="M113,233.91c-66.77675,0 -120.91,-54.13325 -120.91,-120.91v0c0,-66.77675 54.13325,-120.91 120.91,-120.91v0c66.77675,0 120.91,54.13325 120.91,120.91v0c0,66.77675 -54.13325,120.91 -120.91,120.91z" fill="none"></path><path d="M113,229.39c-64.28042,0 -116.39,-52.10958 -116.39,-116.39v0c0,-64.28042 52.10958,-116.39 116.39,-116.39h0c64.28042,0 116.39,52.10958 116.39,116.39v0c0,64.28042 -52.10958,116.39 -116.39,116.39z" fill="none"></path><path d="M113,233.91c-66.77675,0 -120.91,-54.13325 -120.91,-120.91v0c0,-66.77675 54.13325,-120.91 120.91,-120.91v0c66.77675,0 120.91,54.13325 120.91,120.91v0c0,66.77675 -54.13325,120.91 -120.91,120.91z" fill="none"></path><path d="M113,229.39c-64.28042,0 -116.39,-52.10958 -116.39,-116.39v0c0,-64.28042 52.10958,-116.39 116.39,-116.39h0c64.28042,0 116.39,52.10958 116.39,116.39v0c0,64.28042 -52.10958,116.39 -116.39,116.39z" fill="none"></path><path d="M113,233.91c-66.77675,0 -120.91,-54.13325 -120.91,-120.91v0c0,-66.77675 54.13325,-120.91 120.91,-120.91v0c66.77675,0 120.91,54.13325 120.91,120.91v0c0,66.77675 -54.13325,120.91 -120.91,120.91z" fill="none"></path><path d="M113,229.39c-64.28042,0 -116.39,-52.10958 -116.39,-116.39v0c0,-64.28042 52.10958,-116.39 116.39,-116.39h0c64.28042,0 116.39,52.10958 116.39,116.39v0c0,64.28042 -52.10958,116.39 -116.39,116.39z" fill="none"></path><path d="M113,233.91c-66.77675,0 -120.91,-54.13325 -120.91,-120.91v0c0,-66.77675 54.13325,-120.91 120.91,-120.91v0c66.77675,0 120.91,54.13325 120.91,120.91v0c0,66.77675 -54.13325,120.91 -120.91,120.91z" fill="none"></path><path d="M113,229.39c-64.28042,0 -116.39,-52.10958 -116.39,-116.39v0c0,-64.28042 52.10958,-116.39 116.39,-116.39h0c64.28042,0 116.39,52.10958 116.39,116.39v0c0,64.28042 -52.10958,116.39 -116.39,116.39z" fill="none"></path><path d="M113,233.91c-66.77675,0 -120.91,-54.13325 -120.91,-120.91v0c0,-66.77675 54.13325,-120.91 120.91,-120.91v0c66.77675,0 120.91,54.13325 120.91,120.91v0c0,66.77675 -54.13325,120.91 -120.91,120.91z" fill="none"></path><path d="M113,229.39c-64.28042,0 -116.39,-52.10958 -116.39,-116.39v0c0,-64.28042 52.10958,-116.39 116.39,-116.39h0c64.28042,0 116.39,52.10958 116.39,116.39v0c0,64.28042 -52.10958,116.39 -116.39,116.39z" fill="none"></path><path d="M113,233.91c-66.77675,0 -120.91,-54.13325 -120.91,-120.91v0c0,-66.77675 54.13325,-120.91 120.91,-120.91v0c66.77675,0 120.91,54.13325 120.91,120.91v0c0,66.77675 -54.13325,120.91 -120.91,120.91z" fill="none"></path><path d="M113,229.39c-64.28042,0 -116.39,-52.10958 -116.39,-116.39v0c0,-64.28042 52.10958,-116.39 116.39,-116.39h0c64.28042,0 116.39,52.10958 116.39,116.39v0c0,64.28042 -52.10958,116.39 -116.39,116.39z" fill="none"></path><path d="M113,233.91c-66.77675,0 -120.91,-54.13325 -120.91,-120.91v0c0,-66.77675 54.13325,-120.91 120.91,-120.91v0c66.77675,0 120.91,54.13325 120.91,120.91v0c0,66.77675 -54.13325,120.91 -120.91,120.91z" fill="none"></path><path d="M113,229.39c-64.28042,0 -116.39,-52.10958 -116.39,-116.39v0c0,-64.28042 52.10958,-116.39 116.39,-116.39h0c64.28042,0 116.39,52.10958 116.39,116.39v0c0,64.28042 -52.10958,116.39 -116.39,116.39z" fill="none"></path><path d="M113,233.91c-66.77675,0 -120.91,-54.13325 -120.91,-120.91v0c0,-66.77675 54.13325,-120.91 120.91,-120.91v0c66.77675,0 120.91,54.13325 120.91,120.91v0c0,66.77675 -54.13325,120.91 -120.91,120.91z" fill="none"></path><path d="M113,229.39c-64.28042,0 -116.39,-52.10958 -116.39,-116.39v0c0,-64.28042 52.10958,-116.39 116.39,-116.39h0c64.28042,0 116.39,52.10958 116.39,116.39v0c0,64.28042 -52.10958,116.39 -116.39,116.39z" fill="none"></path><path d="M113,233.91c-66.77675,0 -120.91,-54.13325 -120.91,-120.91v0c0,-66.77675 54.13325,-120.91 120.91,-120.91v0c66.77675,0 120.91,54.13325 120.91,120.91v0c0,66.77675 -54.13325,120.91 -120.91,120.91z" fill="none"></path><path d="M113,229.39c-64.28042,0 -116.39,-52.10958 -116.39,-116.39v0c0,-64.28042 52.10958,-116.39 116.39,-116.39h0c64.28042,0 116.39,52.10958 116.39,116.39v0c0,64.28042 -52.10958,116.39 -116.39,116.39z" fill="none"></path><path d="M113,233.91c-66.77675,0 -120.91,-54.13325 -120.91,-120.91v0c0,-66.77675 54.13325,-120.91 120.91,-120.91v0c66.77675,0 120.91,54.13325 120.91,120.91v0c0,66.77675 -54.13325,120.91 -120.91,120.91z" fill="none"></path><path d="M113,229.39c-64.28042,0 -116.39,-52.10958 -116.39,-116.39v0c0,-64.28042 52.10958,-116.39 116.39,-116.39h0c64.28042,0 116.39,52.10958 116.39,116.39v0c0,64.28042 -52.10958,116.39 -116.39,116.39z" fill="none"></path><path d="M113,233.91c-66.77675,0 -120.91,-54.13325 -120.91,-120.91v0c0,-66.77675 54.13325,-120.91 120.91,-120.91v0c66.77675,0 120.91,54.13325 120.91,120.91v0c0,66.77675 -54.13325,120.91 -120.91,120.91z" fill="none"></path><path d="M113,229.39c-64.28042,0 -116.39,-52.10958 -116.39,-116.39v0c0,-64.28042 52.10958,-116.39 116.39,-116.39h0c64.28042,0 116.39,52.10958 116.39,116.39v0c0,64.28042 -52.10958,116.39 -116.39,116.39z" fill="none"></path><path d="M113,226c-62.40818,0 -113,-50.59182 -113,-113v0c0,-62.40818 50.59182,-113 113,-113v0c62.40818,0 113,50.59182 113,113v0c0,62.40818 -50.59182,113 -113,113z" fill="none"></path><path d="M113,221.48c-59.91185,0 -108.48,-48.56815 -108.48,-108.48v0c0,-59.91185 48.56815,-108.48 108.48,-108.48h0c59.91185,0 108.48,48.56815 108.48,108.48v0c0,59.91185 -48.56815,108.48 -108.48,108.48z" fill="none"></path><path d="M113,224.87c-61.78409,0 -111.87,-50.08591 -111.87,-111.87v0c0,-61.78409 50.08591,-111.87 111.87,-111.87v0c61.78409,0 111.87,50.08591 111.87,111.87v0c0,61.78409 -50.08591,111.87 -111.87,111.87z" fill="none"></path><path d="M113,220.35c-59.28777,0 -107.35,-48.06223 -107.35,-107.35v0c0,-59.28777 48.06223,-107.35 107.35,-107.35h0c59.28777,0 107.35,48.06223 107.35,107.35v0c0,59.28777 -48.06223,107.35 -107.35,107.35z" fill="none"></path><path d="M113,202.27c-49.30246,0 -89.27,-39.96754 -89.27,-89.27v0c0,-49.30246 39.96754,-89.27 89.27,-89.27h0c49.30246,0 89.27,39.96754 89.27,89.27v0c0,49.30246 -39.96754,89.27 -89.27,89.27z" fill="none"></path><path d="M113,197.75c-46.80613,0 -84.75,-37.94387 -84.75,-84.75v0c0,-46.80613 37.94387,-84.75 84.75,-84.75v0c46.80613,0 84.75,37.94387 84.75,84.75v0c0,46.80613 -37.94387,84.75 -84.75,84.75z" fill="none"></path><path d="M113,201.14c-48.67838,0 -88.14,-39.46162 -88.14,-88.14v0c0,-48.67838 39.46162,-88.14 88.14,-88.14h0c48.67838,0 88.14,39.46162 88.14,88.14v0c0,48.67838 -39.46162,88.14 -88.14,88.14z" fill="none"></path><path d="M113,196.62c-46.18205,0 -83.62,-37.43795 -83.62,-83.62v0c0,-46.18205 37.43795,-83.62 83.62,-83.62v0c46.18205,0 83.62,37.43795 83.62,83.62v0c0,46.18205 -37.43795,83.62 -83.62,83.62z" fill="none"></path><path d="M113,198.88c-47.43021,0 -85.88,-38.44979 -85.88,-85.88v0c0,-47.43021 38.44979,-85.88 85.88,-85.88v0c47.43021,0 85.88,38.44979 85.88,85.88v0c0,47.43021 -38.44979,85.88 -85.88,85.88z" fill="none"></path><path d="M113,194.36c-44.93389,0 -81.36,-36.42611 -81.36,-81.36v0c0,-44.93389 36.42611,-81.36 81.36,-81.36h0c44.93389,0 81.36,36.42611 81.36,81.36v0c0,44.93389 -36.42611,81.36 -81.36,81.36z" fill="none"></path><path d="M113,200.01c-48.0543,0 -87.01,-38.9557 -87.01,-87.01v0c0,-48.0543 38.9557,-87.01 87.01,-87.01h0c48.0543,0 87.01,38.9557 87.01,87.01v0c0,48.0543 -38.9557,87.01 -87.01,87.01z" fill="none"></path><path d="M113,195.49c-45.55797,0 -82.49,-36.93203 -82.49,-82.49v0c0,-45.55797 36.93203,-82.49 82.49,-82.49v0c45.55797,0 82.49,36.93203 82.49,82.49v0c0,45.55797 -36.93203,82.49 -82.49,82.49z" fill="none"></path><path d="M113,209.05c-53.04695,0 -96.05,-43.00305 -96.05,-96.05v0c0,-53.04695 43.00305,-96.05 96.05,-96.05h0c53.04695,0 96.05,43.00305 96.05,96.05v0c0,53.04695 -43.00305,96.05 -96.05,96.05z" fill="none"></path><path d="M113,204.53c-50.55062,0 -91.53,-40.97938 -91.53,-91.53v0c0,-50.55062 40.97938,-91.53 91.53,-91.53v0c50.55062,0 91.53,40.97938 91.53,91.53v0c0,50.55062 -40.97938,91.53 -91.53,91.53z" fill="none"></path><path d="M113,212.44c-54.9192,0 -99.44,-44.5208 -99.44,-99.44v0c0,-54.9192 44.5208,-99.44 99.44,-99.44v0c54.9192,0 99.44,44.5208 99.44,99.44v0c0,54.9192 -44.5208,99.44 -99.44,99.44z" fill="none"></path><path d="M113,207.92c-52.42287,0 -94.92,-42.49713 -94.92,-94.92v0c0,-52.42287 42.49713,-94.92 94.92,-94.92h0c52.42287,0 94.92,42.49713 94.92,94.92v0c0,52.42287 -42.49713,94.92 -94.92,94.92z" fill="none"></path><path d="M113,214.7c-56.16736,0 -101.7,-45.53264 -101.7,-101.7v0c0,-56.16736 45.53264,-101.7 101.7,-101.7h0c56.16736,0 101.7,45.53264 101.7,101.7v0c0,56.16736 -45.53264,101.7 -101.7,101.7z" fill="none"></path><path d="M113,210.18c-53.67103,0 -97.18,-43.50897 -97.18,-97.18v0c0,-53.67103 43.50897,-97.18 97.18,-97.18v0c53.67103,0 97.18,43.50897 97.18,97.18v0c0,53.67103 -43.50897,97.18 -97.18,97.18z" fill="none"></path><path d="M113,216.96c-57.41552,0 -103.96,-46.54448 -103.96,-103.96v0c0,-57.41552 46.54448,-103.96 103.96,-103.96h0c57.41552,0 103.96,46.54448 103.96,103.96v0c0,57.41552 -46.54448,103.96 -103.96,103.96z" fill="none"></path><path d="M113,212.44c-54.9192,0 -99.44,-44.5208 -99.44,-99.44v0c0,-54.9192 44.5208,-99.44 99.44,-99.44v0c54.9192,0 99.44,44.5208 99.44,99.44v0c0,54.9192 -44.5208,99.44 -99.44,99.44z" fill="none"></path><path d="M113,221.48c-59.91185,0 -108.48,-48.56815 -108.48,-108.48v0c0,-59.91185 48.56815,-108.48 108.48,-108.48h0c59.91185,0 108.48,48.56815 108.48,108.48v0c0,59.91185 -48.56815,108.48 -108.48,108.48z" fill="none"></path><path d="M113,216.96c-57.41552,0 -103.96,-46.54448 -103.96,-103.96v0c0,-57.41552 46.54448,-103.96 103.96,-103.96v0c57.41552,0 103.96,46.54448 103.96,103.96v0c0,57.41552 -46.54448,103.96 -103.96,103.96z" fill="none"></path><path d="M113,222.61c-60.53593,0 -109.61,-49.07407 -109.61,-109.61v0c0,-60.53593 49.07407,-109.61 109.61,-109.61h0c60.53593,0 109.61,49.07407 109.61,109.61v0c0,60.53593 -49.07407,109.61 -109.61,109.61z" fill="none"></path><path d="M113,218.09c-58.0396,0 -105.09,-47.0504 -105.09,-105.09v0c0,-58.0396 47.0504,-105.09 105.09,-105.09v0c58.0396,0 105.09,47.0504 105.09,105.09v0c0,58.0396 -47.0504,105.09 -105.09,105.09z" fill="none"></path><path d="M113,222.61c-60.53593,0 -109.61,-49.07407 -109.61,-109.61v0c0,-60.53593 49.07407,-109.61 109.61,-109.61h0c60.53593,0 109.61,49.07407 109.61,109.61v0c0,60.53593 -49.07407,109.61 -109.61,109.61z" fill="none"></path><path d="M113,218.09c-58.0396,0 -105.09,-47.0504 -105.09,-105.09v0c0,-58.0396 47.0504,-105.09 105.09,-105.09v0c58.0396,0 105.09,47.0504 105.09,105.09v0c0,58.0396 -47.0504,105.09 -105.09,105.09z" fill="none"></path><path d="M113,222.61c-60.53593,0 -109.61,-49.07407 -109.61,-109.61v0c0,-60.53593 49.07407,-109.61 109.61,-109.61h0c60.53593,0 109.61,49.07407 109.61,109.61v0c0,60.53593 -49.07407,109.61 -109.61,109.61z" fill="none"></path><path d="M113,218.09c-58.0396,0 -105.09,-47.0504 -105.09,-105.09v0c0,-58.0396 47.0504,-105.09 105.09,-105.09v0c58.0396,0 105.09,47.0504 105.09,105.09v0c0,58.0396 -47.0504,105.09 -105.09,105.09z" fill="none"></path><path d="M113,222.61c-60.53593,0 -109.61,-49.07407 -109.61,-109.61v0c0,-60.53593 49.07407,-109.61 109.61,-109.61h0c60.53593,0 109.61,49.07407 109.61,109.61v0c0,60.53593 -49.07407,109.61 -109.61,109.61z" fill="none"></path><path d="M113,218.09c-58.0396,0 -105.09,-47.0504 -105.09,-105.09v0c0,-58.0396 47.0504,-105.09 105.09,-105.09v0c58.0396,0 105.09,47.0504 105.09,105.09v0c0,58.0396 -47.0504,105.09 -105.09,105.09z" fill="none"></path><path d="M113,222.61c-60.53593,0 -109.61,-49.07407 -109.61,-109.61v0c0,-60.53593 49.07407,-109.61 109.61,-109.61h0c60.53593,0 109.61,49.07407 109.61,109.61v0c0,60.53593 -49.07407,109.61 -109.61,109.61z" fill="none"></path><path d="M113,218.09c-58.0396,0 -105.09,-47.0504 -105.09,-105.09v0c0,-58.0396 47.0504,-105.09 105.09,-105.09v0c58.0396,0 105.09,47.0504 105.09,105.09v0c0,58.0396 -47.0504,105.09 -105.09,105.09z" fill="none"></path><path d="M113,222.61c-60.53593,0 -109.61,-49.07407 -109.61,-109.61v0c0,-60.53593 49.07407,-109.61 109.61,-109.61h0c60.53593,0 109.61,49.07407 109.61,109.61v0c0,60.53593 -49.07407,109.61 -109.61,109.61z" fill="none"></path><path d="M113,218.09c-58.0396,0 -105.09,-47.0504 -105.09,-105.09v0c0,-58.0396 47.0504,-105.09 105.09,-105.09v0c58.0396,0 105.09,47.0504 105.09,105.09v0c0,58.0396 -47.0504,105.09 -105.09,105.09z" fill="none"></path><path d="M113,222.61c-60.53593,0 -109.61,-49.07407 -109.61,-109.61v0c0,-60.53593 49.07407,-109.61 109.61,-109.61h0c60.53593,0 109.61,49.07407 109.61,109.61v0c0,60.53593 -49.07407,109.61 -109.61,109.61z" fill="none"></path><path d="M113,218.09c-58.0396,0 -105.09,-47.0504 -105.09,-105.09v0c0,-58.0396 47.0504,-105.09 105.09,-105.09v0c58.0396,0 105.09,47.0504 105.09,105.09v0c0,58.0396 -47.0504,105.09 -105.09,105.09z" fill="none"></path><g><path d="M51.79167,150.66667c0,-2.60371 -2.10462,-4.70833 -4.70833,-4.70833h-18.83333c-2.60371,0 -4.70833,2.10462 -4.70833,4.70833v28.25c0,2.60371 2.10463,4.70833 4.70833,4.70833h18.83333c2.60371,0 4.70833,-2.10463 4.70833,-4.70833zM202.45833,150.66667c0,-2.60371 -2.10462,-4.70833 -4.70833,-4.70833h-18.83333c-2.60371,0 -4.70833,2.10462 -4.70833,4.70833v28.25c0,2.60371 2.10463,4.70833 4.70833,4.70833h18.83333c2.60371,0 4.70833,-2.10463 4.70833,-4.70833z" fill="#34495e"></path><path d="M207.16667,94.16667h-23.54167h-141.25h-23.54167c-2.60371,0 -4.70833,2.10462 -4.70833,4.70833v9.41667c0,2.60371 2.10462,4.70833 4.70833,4.70833h14.125h4.70833h150.66667h4.70833h14.125c2.60371,0 4.70833,-2.10462 4.70833,-4.70833v-9.41667c0,-2.60371 -2.10463,-4.70833 -4.70833,-4.70833z" fill="#ab47bc"></path><path d="M193.04167,108.29167l-9.41667,-4.68479c-1.57258,-0.01412 -139.68683,-0.02354 -141.25,-0.02354l-9.41667,4.70833c-5.198,0 -9.41667,8.927 -9.41667,14.125v37.66667c0,2.60371 2.10463,4.70833 4.70833,4.70833h169.5c2.60371,0 4.70833,-2.10463 4.70833,-4.70833v-37.66667c0,-5.198 -4.21867,-14.125 -9.41667,-14.125z" fill="#ab47bc"></path><path d="M187.32575,108.30108c-0.67329,-4.181 -1.80329,-10.74912 -3.70075,-21.19692c-4.70833,-25.89583 -13.70125,-44.72917 -30.60417,-44.72917h-80.04167c-16.90292,0 -26.19246,21.1875 -30.60417,44.72917c-1.921,10.24533 -3.06042,16.91704 -3.73371,21.19692z" fill="#ab47bc"></path><path d="M193.04167,145.95833c0,2.60371 -2.10463,4.70833 -4.70833,4.70833h-150.66667c-2.60371,0 -4.70833,-2.10462 -4.70833,-4.70833v-14.125c0,-2.60371 2.10463,-4.70833 4.70833,-4.70833h150.66667c2.60371,0 4.70833,2.10463 4.70833,4.70833z" fill="#212121"></path><path d="M44.72917,131.83333c-3.90051,0 -7.0625,3.16199 -7.0625,7.0625c0,3.90051 3.16199,7.0625 7.0625,7.0625c3.90051,0 7.0625,-3.16199 7.0625,-7.0625c0,-3.90051 -3.16199,-7.0625 -7.0625,-7.0625zM181.27083,131.83333c-3.90051,0 -7.0625,3.16199 -7.0625,7.0625c0,3.90051 3.16199,7.0625 7.0625,7.0625c3.90051,0 7.0625,-3.16199 7.0625,-7.0625c0,-3.90051 -3.16199,-7.0625 -7.0625,-7.0625z" fill="#ffeb3b"></path><path d="M174.359,88.78504c-4.16217,-22.86837 -10.25475,-36.99337 -21.33817,-36.99337h-80.04167c-10.30183,0 -17.35021,15.72112 -21.34758,37.04987c-1.15825,6.17262 -2.01988,10.97513 -2.66492,14.74179h128.01958c-0.64033,-3.73371 -1.49254,-8.54092 -2.62725,-14.79829z" fill="#e3f2fd"></path><g fill="#ffb74d"><path d="M77.6875,98.875c-9.08708,0 -16.47917,-7.38267 -16.47917,-16.47917c0,-9.0965 7.39208,-16.47917 16.47917,-16.47917c9.08708,0 16.47917,7.38267 16.47917,16.47917c0,9.0965 -7.39208,16.47917 -16.47917,16.47917M143.60417,98.875c-9.08708,0 -16.47917,-7.38267 -16.47917,-16.47917c0,-9.0965 7.39208,-16.47917 16.47917,-16.47917c9.08708,0 16.47917,7.38267 16.47917,16.47917c0,9.0965 -7.39208,16.47917 -16.47917,16.47917"></path></g><path d="M110.64583,82.39583c-6.48808,0 -11.77083,-5.27804 -11.77083,-11.77083c0,-6.49279 5.28275,-11.77083 11.77083,-11.77083c6.48808,0 11.77083,5.27804 11.77083,11.77083c0,6.49279 -5.28275,11.77083 -11.77083,11.77083" fill="#ffa726"></path></g></g></g></svg>