<?xml version="1.0" encoding="iso-8859-1"?>
<!-- Generator: Adobe Illustrator 19.0.0, SVG Export Plug-In . SVG Version: 6.00 Build 0)  -->
<svg version="1.1" id="Capa_1" xmlns="http://www.w3.org/2000/svg" xmlns:xlink="http://www.w3.org/1999/xlink" x="0px" y="0px" fill="#e040fb" width="30pt" height="30pt"
	 viewBox="0 0 512 512" style="enable-background:new 0 0 512 512;" xml:space="preserve">
<g>
	<g>
		<path d="M256,0c-79.392,0-144,64.608-144,144s64.608,144,144,144s144-64.608,144-144S335.392,0,256,0z M256,192
			c-26.464,0-48-21.536-48-48s21.536-48,48-48s48,21.536,48,48S282.464,192,256,192z"/>
	</g>
</g>
<g>
	<g>
		<path d="M393.888,274.72c-6.208-5.056-15.136-4.832-20.992,0.512C341.312,304.096,299.776,320,256,320
			s-85.312-15.904-116.896-44.768c-5.888-5.376-14.848-5.568-20.96-0.544c-6.144,5.088-7.648,13.92-3.488,20.672l127.68,208.96
			c2.912,4.768,8.096,7.68,13.664,7.68s10.752-2.912,13.664-7.648l127.68-208.96C401.504,288.608,400,279.776,393.888,274.72z"/>
	</g>
</g>
<g>
</g>
<g>
</g>
<g>
</g>
<g>
</g>
<g>
</g>
<g>
</g>
<g>
</g>
<g>
</g>
<g>
</g>
<g>
</g>
<g>
</g>
<g>
</g>
<g>
</g>
<g>
</g>
<g>
</g>
</svg>
