<?xml version="1.0" encoding="iso-8859-1"?>
<!-- Generator: Adobe Illustrator 21.0.0, SVG Export Plug-In . SVG Version: 6.00 Build 0)  -->
<svg xmlns="http://www.w3.org/2000/svg" xmlns:xlink="http://www.w3.org/1999/xlink" version="1.1" id="Capa_1" x="0px" y="0px" viewBox="0 0 511.94 511.94" style="enable-background:new 0 0 511.94 511.94;" xml:space="preserve" width="512" height="512">
<g>
	<rect x="141.637" y="173.667" style="fill:#60DD4E;" width="228.667" height="180.667"/>
	<rect x="255.97" y="173.667" style="fill:#67BD00;" width="114.333" height="180.667"/>
	<path style="fill:#57555C;" d="M369.09,383.83c0,62.47-50.65,113.11-113.12,113.11S142.85,446.3,142.85,383.83   c0-62.48,50.65-113.12,113.12-113.12S369.09,321.35,369.09,383.83z"/>
	<path style="fill:#3C3A41;" d="M369.09,383.83c0,62.47-50.65,113.11-113.12,113.11V270.71   C318.44,270.71,369.09,321.35,369.09,383.83z"/>
	<path style="fill:#FF7A53;" d="M255.97,255.71c-70.64,0-128.12,57.47-128.12,128.12c0,70.64,57.48,128.11,128.12,128.11   c70.64,0,128.12-57.47,128.12-128.11C384.09,313.18,326.61,255.71,255.97,255.71z M270.97,480.8c-4.89,0.75-9.9,1.14-15,1.14   s-10.11-0.39-15-1.14c-47.01-7.25-83.12-47.97-83.12-96.97c0-54.11,44.02-98.12,98.12-98.12c54.1,0,98.12,44.01,98.12,98.12   C354.09,432.83,317.98,473.55,270.97,480.8z"/>
	<rect x="240.97" y="416.52" style="fill:#FF7A53;" width="30" height="80.98"/>
	<rect x="171.329" y="368.826" style="fill:#FF7A53;" width="51.951" height="30"/>
	<rect x="283.709" y="368.826" style="fill:#FF7A53;" width="51.95" height="30"/>
	<path style="fill:#FF3B62;" d="M384.09,383.83c0,70.64-57.48,128.11-128.12,128.11v-95.42h15v64.28   c47.01-7.25,83.12-47.97,83.12-96.97c0-54.11-44.02-98.12-98.12-98.12v-30C326.61,255.71,384.09,313.18,384.09,383.83z"/>
	<path style="fill:#60DD4E;" d="M436.16,363.38l-60.56,51.08l-42.66,6.99l-33.49-102.79l48.01-13.73l10.17,0.28l-90.44-120.93   h-22.44l-90.44,120.93l10.17-0.28l48.01,13.73L179,421.45l-42.66-6.99l-60.56-51.08c-20.13-16.98-27.02-44.79-17.15-69.2   l39.71-98.22c10.24-25.32,34.5-41.68,61.81-41.68h191.64c27.31,0,51.57,16.36,61.81,41.68l39.71,98.22   C463.18,318.59,456.29,346.4,436.16,363.38z"/>
	<path style="fill:#67BD00;" d="M436.16,363.38l-60.56,51.08l-42.66,6.99l-33.49-102.79l48.01-13.73l10.17,0.28l-90.44-120.93   h-11.22v-30h95.82c27.31,0,51.57,16.36,61.81,41.68l39.71,98.22C463.18,318.59,456.29,346.4,436.16,363.38z"/>
	<circle style="fill:#FFDBA9;" cx="255.97" cy="84.64" r="84.64"/>
	<path style="fill:#FFC473;" d="M340.61,84.64c0,46.75-37.89,84.64-84.64,84.64V0C302.72,0,340.61,37.89,340.61,84.64z"/>
	<path style="fill:#FFDB2D;" d="M303.66,383.83c0,26.29-21.39,47.69-47.69,47.69s-47.69-21.4-47.69-47.69   c0-26.3,21.39-47.69,47.69-47.69S303.66,357.53,303.66,383.83z"/>
	<path style="fill:#FEC000;" d="M303.66,383.83c0,26.29-21.39,47.69-47.69,47.69v-95.38C282.27,336.14,303.66,357.53,303.66,383.83z   "/>
	<path style="fill:#FFDBA9;" d="M154.31,305.21c0,0-42.315,25.073-40.578,90.181l22.608,19.069l42.66,6.99l33.49-102.79   l-48.01-13.73L154.31,305.21z"/>
	<path style="fill:#FFDBA9;" d="M357.013,305.21c0,0,42.589,25.346,40.851,90.455L375.6,414.46l-42.66,6.99l-33.49-102.79   l48.01-13.73L357.013,305.21z"/>
</g>















</svg>
