<?xml version="1.0" encoding="utf-8"?>
<svg id="master-artboard" viewBox="0 0 1400 1400" version="1.1" xmlns="http://www.w3.org/2000/svg" x="0px" y="0px" width="1400px" height="1400px" enable-background="new 0 0 1400 1400">
<g>
	<path fill="#F0F7CC" d="M700,824c0,0,448.4-4.2,618.5,82.9c0.3-8,0.5-16.1,0.5-24.2c0-341.8-277.1-619-619-619S81,540.9,81,882.7&#10;&#9;&#9;c0,8.1,0.2,16.2,0.5,24.2C251.6,819.8,700,824,700,824z"/>
	<path fill="#FFFFFF" d="M303.5,356.1h356.3c0,0-29.8-4.5-69.2-6c0,0-10.4-38.7-37.2-46.9c-26.8-8.2-40.9,0-40.9,0&#10;&#9;&#9;s-11.9-37.9-50.6-39.4c-38.7-1.5-64.7,31.2-67.7,46.1c0,0-17.9-22.3-43.9-8.2c-26,14.1-18.6,46.1-18.6,46.1&#10;&#9;&#9;S314.7,350.1,303.5,356.1z"/>
	<path fill="#FFFFFF" d="M819.2,444.6h331c0,0-27.6-4.1-64.3-5.5c0,0-9.7-35.9-34.5-43.5c-24.9-7.6-38,0-38,0s-11.1-35.2-47-36.6&#10;&#9;&#9;c-35.9-1.4-60.1,29-62.9,42.8c0,0-16.6-20.7-40.8-7.6c-24.2,13.1-17.3,42.8-17.3,42.8S829.5,439.1,819.2,444.6z"/>
	<path fill="#C0C794" d="M915.2,833.2c0,0,27.3-206.3,92-351.5s116.5-152.4,140.9,23s24.4,363.2,24.4,363.2S991.4,987.7,915.2,833.2&#10;&#9;&#9;z"/>
	<path fill="#D4D6AB" d="M1035.9,851.2c0,0,69-368.1,136.6-359.5s79.1,355.2,67.6,411.2C1228.6,959.1,1048.9,980.6,1035.9,851.2z"/>
	<path fill="#D4D6AB" d="M403.5,816c0,0-81.8-436.4-162-426.2c-80.1,10.2-93.8,421.1-80.1,487.6S388.2,969.4,403.5,816z"/>
	<path fill="#87AA3E" d="M148.9,739.9c0,0,8.3-54.6,28.1-43.8s26,4.6,30.6-29.1c4.6-33.7,26.1,16.9,33.7,0&#10;&#9;&#9;c7.7-16.9,1.5-58.3,23-55.2c21.5,3.1,26.1,53.7,35.3,38.4s23-43,43,6.1c19.9,49.1,24.5,39.9,43,12.3s38.4,10.7,53.7,39.9&#10;&#9;&#9;c15.3,29.1,24.5,7.7,35.3-10.7s23,12.5,32.2,42.3s21.5,9.9,26.1-8.5s26.1,15.3,35.3,43s15.3,0,21.5-12.3&#10;&#9;&#9;c6.1-12.3,21.5,1.1,24.5,29.7c3.1,28.6,18.4,20.8,24.5,7c6.1-13.7,19.9-6.1,26.1,32.3c6.1,38.4-127.7,75.2-257.9,78.2&#10;&#9;&#9;c-130.2,3.1-218.2-35.2-218.2-35.2S128.6,829.7,148.9,739.9z"/>
	<path fill="#9CBA4C" d="M1237.3,946.5c55.5-15.1,86.9-27.8,94.1-30.8c0.5-0.6,1-1.3,1.4-1.9c0,0,3.2-62.6-16.1-53&#10;&#9;&#9;c-19.3,9.5-38.9,12.3-37.2-22.1c1.8-34.4-19.2-39.2-25.6-15.9c-6.4,23.3-11.3-30.3-16.1-50.2c-4.8-19.9-19.3,23.6-24.2,39.7&#10;&#9;&#9;s-17.1-3.5-21.4-25.9c-4.3-22.4-25.3,28.7-30.1,52.3c-4.8,23.6-17.7-28-25.8-26.3s-20.9,38.1-24.2,74.6&#10;&#9;&#9;C1110.2,909.3,1175.3,941.8,1237.3,946.5z"/>
	<path fill="#87AA3E" d="M1192.2,829c0,0,8.5-58.6-12.4-90.8c-20.9-32.2-20.9,33.5-41.9,32.9c-20.9-0.7-17.7-95.7-41.9-82.8&#10;&#9;&#9;c-24.2,12.9-22.5,99.5-48.3,98.1c-25.8-1.5-30.6-82-51.5-61c-20.9,20.9-70.8,90.9-61.2,146.1C944.7,926.6,1180.4,956.7,1192.2,829z&#10;&#9;&#9;"/>
	<path fill="#C1C997" d="M440.1,832.8L440.1,832.8c-30.6-11.5-54.9-15.2-69.9-16.3c1.7-9.5,2.6-20.2,2.6-31.4&#10;&#9;&#9;c0-41.3-12.5-74.8-28-74.8c-5.6,0-10.8,4.4-15.2,12.1c-5.4-65.4-26.5-114.2-51.7-114.2c-26.6,0-48.6,54.3-52.4,125&#10;&#9;&#9;c-2.6-5.6-5.7-8.7-8.9-8.7c-8.5,0-15.7,22.3-18,52.7c-2-6.5-4.4-10.4-7-10.4c-6.8,0-12.3,26-12.3,58c0,17.1,1.6,32.5,4.1,43.1&#10;&#9;&#9;C261.9,849.7,355.3,839,440.1,832.8z"/>
	<path fill="#719130" d="M189.5,780.4c1.2-8-4.9-49.8,8.9-56.4c13.8-6.5,45.9,39.4,75.2,114.7C302.9,914,177.5,857.1,189.5,780.4z"/>
	<path fill="#C1C997" d="M247.7,966.7c41.9-26.3,64.3-66.6,64.3-66.6c-6.1-19.9-21.5-62.9-32.2-43c-10.7,19.9-23,0-24.5-18.4&#10;&#9;&#9;c-1.5-18.4-19.9-49.1-24.5-32.3s-24.5,9.2-29.1-9.2s-18.4-44.5-24.5-29.1c-6.1,15.3-24.5-24.5-35.3-39.9s-23,13.8-19.9,47.6&#10;&#9;&#9;c3.1,33.7-7.7,24.5-25.7,26.1s-3.4,39.9-0.3,69c3.1,29.1-15.3,7.7-24.5,21.5C68,897.1,67,905.7,67,915&#10;&#9;&#9;C67.1,915,127.3,941.8,247.7,966.7z"/>
	<path fill="#87AA3E" d="M204.6,843.3c0,0,12.3-59.8,33.7-50.6c21.5,9.2,26.1,38.9,38.4,24.8s19.9,7.4,27.6,15.1&#10;&#9;&#9;c7.7,7.7,12.3-10.2,21.5-15.1s46,38.1,59.8,78c0,0-59.8,66-158,21.5S204.6,843.3,204.6,843.3z"/>
	<path fill="#C1C997" d="M440.1,832.8c-1.7,0.1-3.4,0.3-5.1,0.4c26.9-2,53-3.6,77.6-4.9c-92-34.4-142.4-11.8-142.4-11.8&#10;&#9;&#9;C385.2,817.6,409.4,821.3,440.1,832.8z"/>
	<path fill="#FCB840" d="M700,824c0,0-475.6-4.5-633,91c0,0,210.4,93.7,633,93.7s633-93.7,633-93.7C1175.6,819.5,700,824,700,824z"/>
	<path fill="#D76343" d="M748.1,824.3C718,823.8,700,824,700,824s-18-0.2-48.1,0.3c-16.3,3.3-164.1,35.9-298.1,161&#10;&#9;&#9;c92.8,13.5,208.2,23.5,346.2,23.5s253.4-10,346.2-23.5C912.2,860.2,764.5,827.6,748.1,824.3z"/>
	<path fill="#F2AD3D" d="M67,915c0,0,210.4,93.7,633,93.7s633-93.7,633-93.7c-5.1-3.1-10.5-6.1-16.3-9&#10;&#9;&#9;c-51.8,25.1-184.1,63-548.8,41.1c-287.7-17.3-426.5-73-474.3-97.1C202.7,863.6,118.1,884,67,915z"/>
	<path fill="#CE5A3E" d="M1046.2,985.2c-12.2-11.4-24.5-22-36.8-31.9c-66.4,1.2-145.9-0.5-241.4-6.2c-133.1-8-234.4-24.2-309.5-41.7&#10;&#9;&#9;c-34.1,21.1-69.9,47.4-104.7,79.9c92.8,13.5,208.2,23.5,346.2,23.5S953.4,998.7,1046.2,985.2z"/>
	<g>
		<path fill="#719130" d="M1095.6,922.2L1095.6,922.2c-0.7-3.1-0.8-6.3-0.3-9.7c1.9-12,11.9-21.3,24-22.3c7-0.5,13.5,1.6,18.5,5.6&#10;&#9;&#9;&#9;c4.7-17.3,20.6-30,39.4-30c2.5,0,4.9,0.2,7.2,0.6c9.3-22.8,31.7-38.9,57.8-38.9c34.5,0,62.4,27.9,62.4,62.4&#10;&#9;&#9;&#9;c8.2,0,14.8,6.6,14.8,14.8c0,0,0,0.1,0,0.1c0,4-3,7.4-6.9,8.2c-23.2,4.7-120.4,27.5-209.5,15&#10;&#9;&#9;&#9;C1099.6,927.5,1096.8,925.3,1095.6,922.2z"/>
		<path fill="#677F2A" d="M1294.1,899c-6.3-20.6-26.6-21.3-26.6-21.3c-5.9-43.1-53.8-43.2-53.8-43.2c8.5-4.4,18.2-6.9,28.4-6.9&#10;&#9;&#9;&#9;c34.5,0,62.4,27.9,62.4,62.4c8.2,0,14.8,6.6,14.8,14.8c0,0,0,0.1,0,0.1c0,4-3,7.4-6.9,8.2c-4,0.8-10.2,2.1-18.2,3.8&#10;&#9;&#9;&#9;C1295.8,911.2,1296,905.2,1294.1,899z"/>
	</g>
	<path fill="#E8A23D" d="M344.9,885.1c-8.4,0-8.4,13,0,13C353.3,898.1,353.3,885.1,344.9,885.1z"/>
	<path fill="#E8A23D" d="M257,942.4c-6.1,0-6.1,9.4,0,9.4C263.1,951.8,263.1,942.4,257,942.4z"/>
	<path fill="#E8A23D" d="M270.2,944.2c-3.8,0-3.8,5.9,0,5.9S274,944.2,270.2,944.2z"/>
	<path fill="#E8A23D" d="M415.7,849.7c-5.3,0-5.3,8.3,0,8.3S421,849.7,415.7,849.7z"/>
	<path fill="#E8A23D" d="M362.6,882.7c-5.3,0-5.3,8.3,0,8.3C367.9,891,367.9,882.7,362.6,882.7z"/>
	<path fill="#E8A23D" d="M338.7,937.1c-12.9,0-12.9,20,0,20S351.6,937.1,338.7,937.1z"/>
	<path fill="#F2AD3D" d="M148.9,933.8c-12.9,0-12.9,20,0,20C161.8,953.8,161.8,933.8,148.9,933.8z"/>
	<path fill="#F2AD3D" d="M158.6,957.1c-5.9,0-5.9,9.2,0,9.2C164.5,966.3,164.5,957.1,158.6,957.1z"/>
	<path fill="#C1503A" d="M448.3,1048.4c-12.2,0-12.2,18.9,0,18.9S460.4,1048.4,448.3,1048.4z"/>
	<path fill="#C1503A" d="M483.7,965.9c-8.4,0-8.4,13,0,13S492,965.9,483.7,965.9z"/>
	<path fill="#C1503A" d="M530.6,950.8c-14.1,0-14.1,21.9,0,21.9S544.7,950.8,530.6,950.8z"/>
	<path fill="#C1503A" d="M779.1,981.3c-6,0-6,9.2,0,9.2S785.1,981.3,779.1,981.3z"/>
	<path fill="#C1503A" d="M473.4,1027.7c-5.3,0-5.3,8.3,0,8.3S478.7,1027.7,473.4,1027.7z"/>
	<path fill="#C1503A" d="M285,998.3c-11.4,0-11.4,17.7,0,17.7C296.4,1015.9,296.4,998.3,285,998.3z"/>
	<path fill="#FCB840" d="M469.4,849.2c-11.4,0-11.4,17.7,0,17.7S480.8,849.2,469.4,849.2z"/>
	<path fill="#C1503A" d="M246.8,1000.4c-6.8,0.6-5.9,11.2,1,10.6C254.6,1010.3,253.6,999.8,246.8,1000.4z"/>
	<path fill="#CE5A3E" d="M787.1,871.2c-10.6,0-10.6,16.5,0,16.5S797.7,871.2,787.1,871.2z"/>
	<path fill="#CE5A3E" d="M755.3,865.5c-6.5,0-6.5,10.1,0,10.1C761.8,875.6,761.8,865.5,755.3,865.5z"/>
	<path fill="#CE5A3E" d="M634.5,893c-11,0-11,17.1,0,17.1S645.5,893,634.5,893z"/>
	<path fill="#CE5A3E" d="M729,993.5c-15.8,0-15.8,24.5,0,24.5C744.7,1017.9,744.7,993.5,729,993.5z"/>
	<path fill="#C1503A" d="M620.1,1046.3c-19.2,0-19.2,29.7,0,29.7S639.3,1046.3,620.1,1046.3z"/>
	<path fill="#CE5A3E" d="M706.6,1016.2c-9.1,0-9.1,14.1,0,14.1S715.7,1016.2,706.6,1016.2z"/>
	<path fill="#C1503A" d="M668.7,1114.8c-11.9,0-11.9,18.5,0,18.5S680.7,1114.8,668.7,1114.8z"/>
	<path fill="#CE5A3E" d="M967.3,980.6c-6.8,0-6.8,10.6,0,10.6S974.2,980.6,967.3,980.6z"/>
	<path fill="#CE5A3E" d="M1028.3,980.6c-11.4,0-11.4,17.7,0,17.7C1039.7,998.3,1039.7,980.6,1028.3,980.6z"/>
	<path fill="#CE5A3E" d="M1023.8,992.4c-7.6,0-7.6,11.8,0,11.8S1031.4,992.4,1023.8,992.4z"/>
	<path fill="#CE5A3E" d="M1043.8,1000.8c-4.3,0-4.3,6.7,0,6.7S1048.2,1000.8,1043.8,1000.8z"/>
	<path fill="#E8A23D" d="M1046.3,960c-7.6,0-7.6,11.8,0,11.8S1053.9,960,1046.3,960z"/>
	<path fill="#E8A23D" d="M1027.4,901.6c-8.4,0-8.4,13,0,13C1035.8,914.6,1035.8,901.6,1027.4,901.6z"/>
	<path fill="#E8A23D" d="M1134.8,952.4c-6.1,0-6.1,9.4,0,9.4C1140.9,961.9,1140.9,952.4,1134.8,952.4z"/>
	<path fill="#E8A23D" d="M1095,870.6c-4.6,0-4.6,7.1,0,7.1S1099.5,870.6,1095,870.6z"/>
	<path fill="#E8A23D" d="M1158.6,944.8c-3,0-3,4.7,0,4.7C1161.7,949.5,1161.7,944.8,1158.6,944.8z"/>
	<path fill="#C1503A" d="M1218.9,947.9c-5.7,0-5.7,8.8,0,8.8S1224.5,947.9,1218.9,947.9z"/>
	<path fill="#CE5A3E" d="M868.6,1012.6c-6.8,0-6.8,10.6,0,10.6C875.4,1023.2,875.4,1012.6,868.6,1012.6z"/>
	<path fill="#CE5A3E" d="M918.6,935.3c-4.6,0-4.6,7.1,0,7.1C923.1,942.4,923.1,935.3,918.6,935.3z"/>
	<path fill="#E8A23D" d="M1095,942.4c-3,0-3,4.7,0,4.7S1098,942.4,1095,942.4z"/>
	<path fill="#C1503A" d="M987.8,1035.2c-9.9,0-9.9,15.3,0,15.3S997.7,1035.2,987.8,1035.2z"/>
	<path fill="#C1503A" d="M1006.5,1050.5c-6.8,0-6.8,10.6,0,10.6S1013.4,1050.5,1006.5,1050.5z"/>
	<path fill="#CE5A3E" d="M848.7,996.1c-12,0-12,18.5,0,18.5C860.6,1014.6,860.6,996.1,848.7,996.1z"/>
	<path fill="#C1503A" d="M975.3,1095.3c-3.8,0-3.8,5.9,0,5.9C979.1,1101.2,979.1,1095.3,975.3,1095.3z"/>
	<path fill="#C1503A" d="M972.5,1046.4c-5.3,0-5.3,8.3,0,8.3C977.8,1054.7,977.8,1046.4,972.5,1046.4z"/>
	<path fill="#C1503A" d="M1158.6,1001.8c-4.6,0-4.6,7.1,0,7.1C1163.2,1008.9,1163.2,1001.8,1158.6,1001.8z"/>
	<path fill="#C1503A" d="M1180,978.2c-9.9,0-9.9,15.3,0,15.3S1189.8,978.2,1180,978.2z"/>
	<path fill="#E8A23D" d="M933.8,849.2c-6.1,0-6.1,9.4,0,9.4S939.9,849.2,933.8,849.2z"/>
	<g>
		<path fill="#3E5B87" d="M407.7,881.1c0,0,24.4-0.5,36.6,24.4h-58.6l4.5-24.4L407.7,881.1z"/>
		<path d="M 396.1000061035156 660 L 425.79998779296875 900.0999755859375 L 390.70001220703125 900.0999755859375 L 335.20001220703125 641.9000244140625 Z" fill="#3E5B87"/>
		<path fill="#5D8EDA" d="M315.9,700.6h40.6c21.9,0,39.7-17.8,39.7-39.7v-31.2h-38.2c-20.2,0-37,15.4-38.9,35.5L315.9,700.6z"/>
		<path d="M 315.8999938964844 700.5999755859375 L 306.6000061035156 900.0999755859375 L 341.70001220703125 900.0999755859375 L 376.79998779296875 682.5 Z" fill="#5D8EDA"/>
		<path fill="#473F58" d="M401,498.1c-8.4,0-16.2,2.1-23.1,5.8c0.1-0.6,0.3-1.3,0.4-1.9c14.2-5.1,24.3-18.7,24.3-34.6&#10;&#9;&#9;&#9;c0-20.3-16.5-36.7-36.7-36.7c-13.5,0-25.2,7.3-31.6,18.1c0,0-0.1,0-0.1,0c-24.8,0-44.9,20.1-44.9,44.9c0,2,0.1,4,0.4,5.9&#10;&#9;&#9;&#9;c-13,9.9-21.3,25.4-21.3,43c0,29.8,24.2,54,54,54c9.6,0,18.7-2.5,26.5-7c6.4-1.9,12.2-5.1,17.2-9.1c8.8,9.2,21.2,14.9,35,14.9&#10;&#9;&#9;&#9;c26.8,0,48.6-21.8,48.6-48.6S427.9,498.1,401,498.1z"/>
		<path d="M 342.1000061035156 558.7000122070312 L 367.8999938964844 558.7000122070312 L 367.8999938964844 582.2999877929688 L 339.5 582.2999877929688 Z" fill="#FFFFFF"/>
		<path fill="#FFFFFF" d="M383.8,594.3c-9.9,0-18.5-7.4-19.8-17.5c-1.4-11,6.3-21,17.3-22.4l114.1-14.6c11-1.4,21,6.3,22.4,17.3&#10;&#9;&#9;&#9;c1.4,11-6.3,21-17.3,22.4l-114.1,14.6C385.5,594.2,384.6,594.3,383.8,594.3z"/>
		<path fill="#FFFFFF" d="M306.6,649.1c-3.7,0-7.4-1-10.7-3.1c-9.3-5.9-12.1-18.3-6.1-27.6l35.5-55.8c5.9-9.3,18.3-12.1,27.6-6.1&#10;&#9;&#9;&#9;s12.1,18.3,6.1,27.6l-35.5,55.8C319.6,645.8,313.2,649.1,306.6,649.1z"/>
		<path fill="#FFFCFD" d="M392.4,603.8h-31.2c-12.5,0-22.6-10.1-22.6-22.6v0c0-12.5,10.1-22.6,22.6-22.6h31.2&#10;&#9;&#9;&#9;c12.5,0,22.6,10.1,22.6,22.6v0C415,593.7,404.9,603.8,392.4,603.8z"/>
		<path d="M 382.3999938964844 572.5 L 383.79998779296875 515.2999877929688 L 351.8999938964844 515.2999877929688 L 356.6000061035156 572.5 Z" fill="#ED91A5"/>
		<path fill="#F495A5" d="M382.3,552.8L382.3,552.8c-20.4,1.3-38-14.2-39.3-34.6l-0.3-5.3c-1.3-20.4,14.2-38,34.6-39.3l37-2.4&#10;&#9;&#9;&#9;l2.7,42.2C418.2,533.9,402.7,551.5,382.3,552.8z"/>
		<path fill="#FFFCFD" d="M367,673.1L367,673.1c-16.1,0-29.2-13.1-29.2-29.2v-57.8h58.4v57.8C396.2,660.1,383.1,673.1,367,673.1z"/>
		<path d="M 429.799988 474.200012 A 36.5 36.5 0 0 1 393.299988 510.700012 A 36.5 36.5 0 0 1 356.799988 474.200012 A 36.5 36.5 0 0 1 393.299988 437.700012 A 36.5 36.5 0 0 1 429.799988 474.200012 Z" fill="#473F58"/>
		<path d="M 388.799988 502.5 A 36.5 36.5 0 0 1 352.299988 539 A 36.5 36.5 0 0 1 315.799988 502.5 A 36.5 36.5 0 0 1 352.299988 466 A 36.5 36.5 0 0 1 388.799988 502.5 Z" fill="#473F58"/>
		<path d="M 517.200006 549.900024 A 22.6 22.6 0 0 1 494.600006 572.500025 A 22.6 22.6 0 0 1 472.000006 549.900024 A 22.6 22.6 0 0 1 494.600006 527.300024 A 22.6 22.6 0 0 1 517.200006 549.900024 Z" fill="#F495A5"/>
		<path fill="#F2F2F2" d="M395.4,608.9c0.2,0,0.5,0,0.7,0v-5.4c-1.2,0.2-2.4,0.3-3.7,0.3h-31.2c-10.3,0-19-6.9-21.7-16.4&#10;&#9;&#9;&#9;c1,12,11.1,21.5,23.4,21.5H395.4z"/>
		<path fill="#F495A5" d="M485.2,550.9h-13.3v-26.9c0-3.7,3-6.6,6.6-6.6l0,0c3.7,0,6.6,3,6.6,6.6V550.9z"/>
		<path fill="#CD3234" d="M362.5,831.5h-81.9V803c0-22.6,18.4-41,41-41s41,18.4,41,41V831.5z M298.6,813.5h45.9V803&#10;&#9;&#9;&#9;c0-12.7-10.3-23-23-23s-23,10.3-23,23V813.5z"/>
		<path fill="#CD3234" d="M394.4,798.4H281.6c-12.1,0-21.9,9.8-21.9,21.9v84.5c0,12.1,9.8,21.9,21.9,21.9h112.8&#10;&#9;&#9;&#9;c12.1,0,21.9-9.8,21.9-21.9v-84.5C416.3,808.2,406.5,798.4,394.4,798.4z"/>
		<path fill="#F3463D" d="M364.8,798.4H251.9c-12.1,0-21.9,9.8-21.9,21.9v84.5c0,12.1,9.8,21.9,21.9,21.9h112.8&#10;&#9;&#9;&#9;c12.1,0,21.9-9.8,21.9-21.9v-84.5C386.7,808.2,376.9,798.4,364.8,798.4z"/>
		<path fill="#353E4F" d="M390.3,527.3l-0.4,0c-3.9,0.3-7.2-2.7-7.5-6.6l-0.2-3.2l17.7-1.1l0,0C400.2,522.1,395.9,526.9,390.3,527.3&#10;&#9;&#9;&#9;z"/>
		<path fill="#353E4F" d="M410.5,526l-0.4,0c-3.9,0.3-7.2-2.7-7.5-6.6l-0.2-3.2l17.7-1.1l0,0C420.4,520.8,416.1,525.6,410.5,526z"/>
		<path fill="#FFFCFD" d="M393.8,543.7L393.8,543.7c-3.2,0.2-6-2.2-6.2-5.5l-0.1-1.4l11.7-0.8l0.1,1.4&#10;&#9;&#9;&#9;C399.4,540.7,397,543.4,393.8,543.7z"/>
		<path fill="#CD3234" d="M270,907.4h-12.6c-4.8,0-8.8-3.9-8.8-8.8v-73.3c0-4.8,3.9-8.8,8.8-8.8H270c4.8,0,8.8,3.9,8.8,8.8v73.3&#10;&#9;&#9;&#9;C278.7,903.5,274.8,907.4,270,907.4z"/>
		<path fill="#CD3234" d="M314.1,907.4h-12.6c-4.8,0-8.8-3.9-8.8-8.8v-73.3c0-4.8,3.9-8.8,8.8-8.8h12.6c4.8,0,8.8,3.9,8.8,8.8v73.3&#10;&#9;&#9;&#9;C322.8,903.5,318.9,907.4,314.1,907.4z"/>
		<path fill="#CD3234" d="M358.2,907.4h-12.6c-4.8,0-8.8-3.9-8.8-8.8v-73.3c0-4.8,3.9-8.8,8.8-8.8h12.6c4.8,0,8.8,3.9,8.8,8.8v73.3&#10;&#9;&#9;&#9;C367,903.5,363,907.4,358.2,907.4z"/>
		<path fill="#C12D34" d="M341.7,898.6v-73.3c0-4.8,3.9-8.8,8.8-8.8h-4.9c-4.8,0-8.8,3.9-8.8,8.8v73.3c0,4.8,3.9,8.8,8.8,8.8h4.9&#10;&#9;&#9;&#9;C345.6,907.4,341.7,903.5,341.7,898.6z"/>
		<path fill="#C12D34" d="M297.6,898.6v-73.3c0-4.8,3.9-8.8,8.8-8.8h-4.9c-4.8,0-8.8,3.9-8.8,8.8v73.3c0,4.8,3.9,8.8,8.8,8.8h4.9&#10;&#9;&#9;&#9;C301.5,907.4,297.6,903.5,297.6,898.6z"/>
		<path fill="#C12D34" d="M253.4,898.6v-73.3c0-4.8,3.9-8.8,8.8-8.8h-4.9c-4.8,0-8.8,3.9-8.8,8.8v73.3c0,4.8,3.9,8.8,8.8,8.8h4.9&#10;&#9;&#9;&#9;C257.4,907.4,253.4,903.5,253.4,898.6z"/>
		<path fill="#DB3E46" d="M270.8,899.6L270.8,899.6c1.4,0,2.5-1.1,2.5-2.5v-69c0-1.4-1.1-2.5-2.5-2.5l0,0c-1.4,0-2.5,1.1-2.5,2.5v69&#10;&#9;&#9;&#9;C268.3,898.5,269.4,899.6,270.8,899.6z"/>
		<path fill="#DB3E46" d="M315.7,899.6L315.7,899.6c1.4,0,2.5-1.1,2.5-2.5v-69c0-1.4-1.1-2.5-2.5-2.5h0c-1.4,0-2.5,1.1-2.5,2.5v69&#10;&#9;&#9;&#9;C313.2,898.5,314.3,899.6,315.7,899.6z"/>
		<path fill="#DB3E46" d="M360.6,899.6L360.6,899.6c1.4,0,2.5-1.1,2.5-2.5v-69c0-1.4-1.1-2.5-2.5-2.5l0,0c-1.4,0-2.5,1.1-2.5,2.5v69&#10;&#9;&#9;&#9;C358.2,898.5,359.3,899.6,360.6,899.6z"/>
		<path fill="#FFFFFF" d="M319.6,679.5c-7.1,0-14-3.8-17.6-10.5l-15.2-27.9c-5.3-9.7-1.7-21.8,8-27.1c9.7-5.3,21.8-1.7,27.1,8&#10;&#9;&#9;&#9;l15.2,27.9c5.3,9.7,1.7,21.8-8,27.1C326.1,678.7,322.8,679.5,319.6,679.5z"/>
		<path d="M 349.999989 670.799988 A 21.700001 21.700001 0 0 1 328.299988 692.499989 A 21.700001 21.700001 0 0 1 306.599987 670.799988 A 21.700001 21.700001 0 0 1 328.299988 649.099987 A 21.700001 21.700001 0 0 1 349.999989 670.799988 Z" fill="#F495A5"/>
	</g>
	<path fill="#D76343" d="M755.3,777.1h-4.3c-1.5,0-2.9,0.7-3.8,1.7l-11-40.7c1.1-0.1,2-0.9,2.2-2l0,0c0.3-1.3-0.5-2.5-1.7-2.9&#10;&#9;&#9;c-0.6-0.2-1.3-0.4-2-0.6l0-0.2h-0.5c-6.5-1.9-18.9-4.8-34.1-4.8s-27.7,2.9-34.1,4.8h-0.5l0,0.2c-0.8,0.2-1.5,0.4-2,0.6&#10;&#9;&#9;c-1.2,0.4-2,1.6-1.7,2.9l0,0c0.2,1.1,1.2,1.9,2.2,2l-11,40.7c-0.9-1.1-2.3-1.7-3.8-1.7h-4.3c-2.8,0-5.1,2.3-5.1,5.1v0&#10;&#9;&#9;c0,2.8,2.3,5.1,5.1,5.1h3.3c-0.9,1-1.7,2.3-2,3.9v15.8c-0.4-0.1-0.8-0.2-1.2-0.3c-0.8-0.2-1.5,0.4-1.5,1.2v1.4&#10;&#9;&#9;c0,2.5,1.5,4.8,3.9,5.7c1,0.4,2.2,0.8,3.6,1.3v8.1h15.2v-4.5c8.6,1.5,19.8,2.6,34.1,2.6s25.5-1.1,34.1-2.6v4.5h15.2v-8.1&#10;&#9;&#9;c1.4-0.5,2.6-0.9,3.6-1.3c2.3-0.9,3.9-3.2,3.9-5.7v-1.4c0-0.8-0.7-1.4-1.5-1.2c-0.3,0.1-0.7,0.2-1.2,0.3v-15.8&#10;&#9;&#9;c-0.3-1.6-1.1-2.9-2-3.9h3.3c2.8,0,5.1-2.3,5.1-5.1v0C760.4,779.4,758.1,777.1,755.3,777.1z M668.7,737.1&#10;&#9;&#9;c7.6-1.6,19.2-3.6,31.3-3.6s23.8,2,31.3,3.6l10.8,39.7c-1.5-0.5-3.9-1.3-7.2-2.1v-7.9c0-1.1-0.2-2.3-0.7-3.3&#10;&#9;&#9;c-1.7-3.9-5.6-4.7-5.6-4.7v-11.8c-1.1-8.2-9-7.4-9-7.4c-7.5,0.6-7.7,8.1-7.7,8.1v10.7c0,0-3.6,1.2-5.3,4.8&#10;&#9;&#9;c-1.3,2.7-1.5,6.2-1.6,7.7c-1.7,0-3.4-0.1-5.1-0.1c-22.7,0-37.4,4.3-42.2,5.9L668.7,737.1z"/>
	<g>
		<path fill="#719130" d="M302.5,922.9L302.5,922.9c0.7-3.1,0.8-6.3,0.3-9.7c-1.9-12-11.9-21.3-24-22.3c-7-0.5-13.5,1.6-18.5,5.6&#10;&#9;&#9;&#9;c-4.7-17.3-20.6-30-39.4-30c-2.5,0-4.9,0.2-7.2,0.6c-9.3-22.8-31.7-38.9-57.8-38.9c-34.5,0-62.4,27.9-62.4,62.4&#10;&#9;&#9;&#9;c-8.2,0-14.8,6.6-14.8,14.8c0,0,0,0.1,0,0.1c0,4,3,7.4,6.9,8.2c23.2,4.7,120.4,27.5,209.5,15C298.5,928.2,301.3,926,302.5,922.9z"/>
		<path fill="#677F2A" d="M104,899.7c6.3-20.6,26.6-21.3,26.6-21.3c5.9-43.1,53.8-43.2,53.8-43.2c-8.5-4.4-18.2-6.9-28.4-6.9&#10;&#9;&#9;&#9;c-34.5,0-62.4,27.9-62.4,62.4c-8.2,0-14.8,6.6-14.8,14.8c0,0,0,0.1,0,0.1c0,4,3,7.4,6.9,8.2c4,0.8,10.2,2.1,18.2,3.8&#10;&#9;&#9;&#9;C102.3,912,102.1,905.9,104,899.7z"/>
	</g>
</g>
<path fill="#FFFFFF" d="M671.7,614h214.7c0,0-17.9-2.7-41.7-3.6c0,0-6.3-23.3-22.4-28.2s-24.7,0-24.7,0s-7.2-22.9-30.5-23.8&#10;&#9;s-39,18.8-40.8,27.8c0,0-10.8-13.4-26.4-4.9c-15.7,8.5-11.2,27.8-11.2,27.8S678.5,610.4,671.7,614z"/>
</svg>