<svg height="30pt" viewBox="0 -20 512 512" width="30pt" fill="#e040fb" xmlns="http://www.w3.org/2000/svg"><path d="m433.15625 236.371094c-20.582031-10.363282-44.039062-18.707032-69.429688-24.84375l58.605469-117.210938c10.175781-20.351562 9.109375-44.054687-2.851562-63.410156-11.960938-19.351562-32.6875-30.90625-55.441407-30.90625h-216.078124c-22.753907 0-43.480469 11.554688-55.441407 30.90625-11.960937 19.355469-13.027343 43.058594-2.851562 63.410156l58.605469 117.207032c-25.390626 6.140624-48.847657 14.484374-69.429688 24.847656-50.84375 25.601562-78.84375 60.832031-78.84375 99.203125 0 38.375 28 73.605469 78.84375 99.203125 47.570312 23.953125 110.484375 37.144531 177.15625 37.144531s129.585938-13.191406 177.15625-37.144531c50.84375-25.597656 78.84375-60.828125 78.84375-99.203125 0-38.371094-28-73.601563-78.84375-99.203125zm-13.488281 171.613281c-43.46875 21.882813-101.59375 33.9375-163.667969 33.9375s-120.199219-12.054687-163.667969-33.9375c-39.613281-19.949219-62.332031-46.339844-62.332031-72.410156 0-26.070313 22.71875-52.460938 62.332031-72.40625 20.386719-10.265625 43.996094-18.367188 69.722657-24.074219l22.828124 45.652344c-33.421874 9.640625-57.621093 26.722656-57.621093 50.828125 0 39.445312 64.765625 60.082031 128.738281 60.082031s128.738281-20.636719 128.738281-60.082031c0-24.105469-24.199219-41.1875-57.621093-50.828125l22.828124-45.652344c25.726563 5.707031 49.335938 13.808594 69.722657 24.074219 39.613281 19.945312 62.332031 46.335937 62.332031 72.40625 0 26.070312-22.71875 52.460937-62.332031 72.410156zm-301.628907-361.304687c6.457032-10.445313 17.640626-16.679688 29.921876-16.679688h216.078124c12.28125 0 23.464844 6.234375 29.921876 16.679688 6.453124 10.445312 7.027343 23.238281 1.539062 34.21875l-108.039062 216.082031c-6.089844 12.175781-17.851563 19.441406-31.460938 19.441406s-25.371094-7.265625-31.460938-19.441406l-108.039062-216.082031c-5.488281-10.980469-4.914062-23.773438 1.539062-34.21875zm212.859376 270.964843c17.492187 6.933594 23.839843 14.523438 23.839843 17.929688 0 3.410156-6.347656 11-23.839843 17.933593-19.480469 7.71875-46.777344 12.148438-74.898438 12.148438s-55.417969-4.429688-74.898438-12.148438c-17.492187-6.933593-23.839843-14.523437-23.839843-17.933593 0-3.410157 6.347656-10.996094 23.839843-17.929688 5.296876-2.097656 11.1875-3.945312 17.5-5.535156 11.386719 21.214844 33.199219 34.3125 57.398438 34.3125s46.011719-13.097656 57.398438-34.3125c6.3125 1.589844 12.203124 3.4375 17.5 5.535156zm0 0"/></svg>