<?xml version="1.0" standalone="no"?><!DOCTYPE svg PUBLIC "-//W3C//DTD SVG 1.1//EN" "http://www.w3.org/Graphics/SVG/1.1/DTD/svg11.dtd"><svg class="icon" height="512" fill="#e040fb" viewBox="0 0 1024 1024" version="1.1" xmlns="http://www.w3.org/2000/svg"><path d="M511.994 979.415c-258.162 0-467.401-209.271-467.401-467.401 0-258.182 209.244-467.456 467.401-467.456 258.237 0 467.483 209.271 467.483 467.456 0 258.117-209.294 467.401-467.483 467.401v0zM823.539 200.445c-40.447-40.461-87.569-72.263-140.051-94.428-54.274-22.986-111.969-34.644-171.554-34.644-59.477 0-117.174 11.639-171.465 34.644-52.436 22.167-99.612 53.916-140.080 94.428-40.447 40.447-72.263 87.622-94.428 140.080-22.948 54.274-34.618 111.969-34.618 171.465 0 59.522 11.639 117.218 34.618 171.503 22.167 52.404 53.942 99.572 94.428 140.080 40.461 40.39 87.635 72.204 140.080 94.428 54.288 22.88 111.986 34.618 171.465 34.618 59.566 0 117.271-11.674 171.554-34.618 52.464-22.223 99.595-53.997 140.051-94.428 40.461-40.507 72.263-87.652 94.482-140.080 22.954-54.288 34.596-111.969 34.596-171.503 0-59.477-11.594-117.19-34.596-171.465-22.223-52.484-53.997-99.63-94.482-140.080v0zM756.545 695.659c-10.121 36.492-76.529 66.041-148.89 47.943-72.793-18.102-145.647-56.539-204.241-114.717-58.096-58.522-96.562-131.331-114.656-204.162-18.075-72.429 11.504-138.698 47.921-148.89 9.316-2.567 46.989-6.732 103.826 94.562 16.214 29.183 3.747 27.801-32.56 86.979-17.008 27.651 10.817 65.214 10.817 65.214s18.922 29.728 40.091 50.991 50.955 40.034 50.955 40.034 37.578 27.726 65.214 10.901c59.255-36.252 57.839-48.88 86.851-32.524 101.445 56.711 97.21 94.383 94.689 103.634v0z" /></svg>
